<?xml version="1.0" encoding="iso-8859-1"?>
<!-- Generator: Adobe Illustrator 19.0.0, SVG Export Plug-In . SVG Version: 6.00 Build 0)  -->
<svg fill="#0F4B88" version="1.1" id="Capa_1" xmlns="http://www.w3.org/2000/svg" xmlns:xlink="http://www.w3.org/1999/xlink" x="0px" y="0px"
	 viewBox="0 0 384 384" style="enable-background:new 0 0 384 384;" xml:space="preserve">
<g>
	<g>
		<path d="M384,112V0H272v40H112V0H0v112h40v160H0v112h112v-40h160v40h112V272h-40V112H384z M32,80V32h48v8v32v8h-8H40H32z M80,312
			v32v8H32v-48h8h32h8V312z M272,312H112v-40H72V112h40V72h160v40h40v160h-40V312z M352,304v48h-48v-8v-32v-8h8h32H352z M312,80h-8
			v-8V40v-8h48v48h-8H312z"/>
	</g>
</g>
<g>
</g>
<g>
</g>
<g>
</g>
<g>
</g>
<g>
</g>
<g>
</g>
<g>
</g>
<g>
</g>
<g>
</g>
<g>
</g>
<g>
</g>
<g>
</g>
<g>
</g>
<g>
</g>
<g>
</g>
</svg>
